<mxfile host="65bd71144e">
    <diagram id="uI9hO-N1rfZND0lMfROh" name="Page-1">
        <mxGraphModel dx="2327" dy="1800" grid="1" gridSize="10" guides="1" tooltips="1" connect="1" arrows="1" fold="1" page="1" pageScale="1" pageWidth="850" pageHeight="1100" math="0" shadow="0">
            <root>
                <mxCell id="0"/>
                <mxCell id="1" parent="0"/>
                <mxCell id="102" style="edgeStyle=none;html=1;fontSize=11;fillColor=#e51400;strokeColor=#B20000;" edge="1" parent="1" source="27" target="28">
                    <mxGeometry relative="1" as="geometry"/>
                </mxCell>
                <mxCell id="2" value="Player appears at the bottom of the forest, there is a dirt path in front of them, slowly climbing,&lt;br&gt;&amp;nbsp;but they cannot see where it goes exactly." style="rounded=0;whiteSpace=wrap;html=1;" vertex="1" parent="1">
                    <mxGeometry x="230.01" y="-110" width="260" height="110" as="geometry"/>
                </mxCell>
                <mxCell id="3" value="" style="shape=flexArrow;endArrow=classic;html=1;" edge="1" parent="1" source="2" target="4">
                    <mxGeometry width="50" height="50" relative="1" as="geometry">
                        <mxPoint x="389.99" y="410" as="sourcePoint"/>
                        <mxPoint x="439.99" y="360" as="targetPoint"/>
                    </mxGeometry>
                </mxCell>
                <mxCell id="5" value="Walk through the dirt path" style="edgeLabel;html=1;align=center;verticalAlign=middle;resizable=0;points=[];fontSize=21;" vertex="1" connectable="0" parent="3">
                    <mxGeometry x="-0.1994" y="3" relative="1" as="geometry">
                        <mxPoint as="offset"/>
                    </mxGeometry>
                </mxCell>
                <mxCell id="4" value="Player reaches The House. There is also a tool shed.&lt;br&gt;" style="rounded=0;whiteSpace=wrap;html=1;" vertex="1" parent="1">
                    <mxGeometry x="246.88" y="180" width="226.25" height="40" as="geometry"/>
                </mxCell>
                <mxCell id="8" value="Display text which is the introdution to the situation" style="rounded=1;whiteSpace=wrap;html=1;fontSize=11;fillColor=#647687;fontColor=#ffffff;strokeColor=#314354;" vertex="1" parent="1">
                    <mxGeometry x="600" y="20" width="120" height="60" as="geometry"/>
                </mxCell>
                <mxCell id="9" value="" style="endArrow=none;dashed=1;html=1;fontSize=11;entryX=0;entryY=0.5;entryDx=0;entryDy=0;" edge="1" parent="1" target="8">
                    <mxGeometry width="50" height="50" relative="1" as="geometry">
                        <mxPoint x="470" y="70" as="sourcePoint"/>
                        <mxPoint x="530" y="70" as="targetPoint"/>
                    </mxGeometry>
                </mxCell>
                <mxCell id="10" value="Display text explaining how to move/walk" style="rounded=1;whiteSpace=wrap;html=1;fontSize=11;fillColor=#647687;fontColor=#ffffff;strokeColor=#314354;" vertex="1" parent="1">
                    <mxGeometry x="560" y="-85" width="120" height="60" as="geometry"/>
                </mxCell>
                <mxCell id="11" value="" style="endArrow=none;dashed=1;html=1;fontSize=11;entryX=0;entryY=0.5;entryDx=0;entryDy=0;exitX=1;exitY=0.5;exitDx=0;exitDy=0;" edge="1" parent="1" source="2" target="10">
                    <mxGeometry width="50" height="50" relative="1" as="geometry">
                        <mxPoint x="420" y="190" as="sourcePoint"/>
                        <mxPoint x="470" y="140" as="targetPoint"/>
                    </mxGeometry>
                </mxCell>
                <mxCell id="12" value="This should take at least a minute or two, with music playing to establish the ambiance." style="rounded=1;whiteSpace=wrap;html=1;fontSize=11;fillColor=#647687;fontColor=#ffffff;strokeColor=#314354;" vertex="1" parent="1">
                    <mxGeometry x="600" y="90" width="150" height="70" as="geometry"/>
                </mxCell>
                <mxCell id="13" value="" style="endArrow=none;dashed=1;html=1;fontSize=11;entryX=0;entryY=0.5;entryDx=0;entryDy=0;" edge="1" parent="1" target="12">
                    <mxGeometry width="50" height="50" relative="1" as="geometry">
                        <mxPoint x="470" y="90" as="sourcePoint"/>
                        <mxPoint x="470" y="250" as="targetPoint"/>
                    </mxGeometry>
                </mxCell>
                <mxCell id="14" value="Display text about how to take objects and move them around&amp;nbsp; when the player is close to these objects for the first time." style="rounded=1;whiteSpace=wrap;html=1;fontSize=11;fillColor=#647687;fontColor=#ffffff;strokeColor=#314354;" vertex="1" parent="1">
                    <mxGeometry x="600" y="320" width="160" height="70" as="geometry"/>
                </mxCell>
                <mxCell id="15" value="" style="endArrow=none;dashed=1;html=1;fontSize=11;exitX=1;exitY=0.5;exitDx=0;exitDy=0;entryX=0;entryY=0.5;entryDx=0;entryDy=0;" edge="1" parent="1" source="57" target="14">
                    <mxGeometry width="50" height="50" relative="1" as="geometry">
                        <mxPoint x="460" y="420" as="sourcePoint"/>
                        <mxPoint x="510" y="370" as="targetPoint"/>
                    </mxGeometry>
                </mxCell>
                <mxCell id="17" value="Player have access to inside the main corridor of the house.&lt;br&gt;&lt;br&gt;It's pretty dark in the house, except in the toilets which is at the end of the corridor the player faces." style="rounded=0;whiteSpace=wrap;html=1;fontSize=11;" vertex="1" parent="1">
                    <mxGeometry x="270" y="490" width="180" height="90" as="geometry"/>
                </mxCell>
                <mxCell id="18" value="&lt;font style=&quot;font-size: 15px&quot;&gt;Unlock and open the door using the house key&lt;/font&gt;" style="shape=flexArrow;endArrow=classic;html=1;fontSize=11;entryX=0.5;entryY=0;entryDx=0;entryDy=0;exitX=0.5;exitY=1;exitDx=0;exitDy=0;fillColor=#e51400;strokeColor=#B20000;" edge="1" parent="1" source="57" target="17">
                    <mxGeometry x="-0.2" width="50" height="50" relative="1" as="geometry">
                        <mxPoint x="420" y="550" as="sourcePoint"/>
                        <mxPoint x="470" y="500" as="targetPoint"/>
                        <mxPoint as="offset"/>
                    </mxGeometry>
                </mxCell>
                <mxCell id="21" value="An unsettling Chest:&lt;br&gt;- 3 foot seems to have grown from it's cover, going outward. They are naked.&lt;br&gt;- the chest is closed and locked. There is a big keypad on it with numbers (0 to 9). 6 numbers must be entered." style="rounded=0;whiteSpace=wrap;html=1;fontSize=11;" vertex="1" parent="1">
                    <mxGeometry x="-140" y="1370" width="180" height="130" as="geometry"/>
                </mxCell>
                <mxCell id="77" style="edgeStyle=none;html=1;fontSize=11;" edge="1" parent="1" source="22" target="76">
                    <mxGeometry relative="1" as="geometry"/>
                </mxCell>
                <mxCell id="22" value="A massive eye coming out of in a paint on the wall on the side of the door (so that player discovers it when exiting the room)." style="rounded=0;whiteSpace=wrap;html=1;fontSize=11;" vertex="1" parent="1">
                    <mxGeometry x="620" y="550" width="180" height="70" as="geometry"/>
                </mxCell>
                <mxCell id="23" value="A half-player-size doll (that must be creepy) on the border of the bed. Too heavy to be moved around (if possible, only the arms can be moved, and the head turned).&lt;br&gt;After the first time the player sees closely, it will teleport behind the player (or close to that position, but behind the player) each time the player cannot see it anymore (without a noise).&lt;br&gt;Should be scary. No need for sounds when it's teleported.&lt;br&gt;The doll cannot be traversed so the player have to move around it to go behind it." style="rounded=0;whiteSpace=wrap;html=1;fontSize=11;" vertex="1" parent="1">
                    <mxGeometry x="90" y="1480" width="230" height="195" as="geometry"/>
                </mxCell>
                <mxCell id="24" value="A door with a human hand made of flesh as a knob. It's open like for shaking another hand. The door is closed until we put something in the hand's palm (a gold statue of a human hand, shaking the other way)." style="rounded=0;whiteSpace=wrap;html=1;fontSize=11;" vertex="1" parent="1">
                    <mxGeometry x="1090" y="1530" width="200" height="130" as="geometry"/>
                </mxCell>
                <mxCell id="26" value="A big cauldron, with a weird sauce in it.&amp;nbsp;&lt;br&gt;Player can put objects in it, the sauce is not tall enough to hide the objects." style="rounded=0;whiteSpace=wrap;html=1;fontSize=11;" vertex="1" parent="1">
                    <mxGeometry x="1140" y="1320" width="200" height="100" as="geometry"/>
                </mxCell>
                <mxCell id="27" value="A &lt;b&gt;MUSIC BOX&lt;/b&gt;. It's locked, must be unlocked with a key. Once unlocked it can play some unsettling music." style="rounded=0;whiteSpace=wrap;html=1;fontSize=11;fillColor=#e51400;fontColor=#ffffff;strokeColor=#B20000;" vertex="1" parent="1">
                    <mxGeometry x="1160" y="630" width="160" height="110" as="geometry"/>
                </mxCell>
                <mxCell id="28" value="A door covered by many human ears.&lt;br&gt;&lt;br&gt;Play the music box close to it to open it." style="rounded=0;whiteSpace=wrap;html=1;fontSize=11;" vertex="1" parent="1">
                    <mxGeometry x="617.5" y="1015" width="175" height="110" as="geometry"/>
                </mxCell>
                <mxCell id="62" style="edgeStyle=none;html=1;fontSize=11;" edge="1" parent="1" source="29" target="22">
                    <mxGeometry relative="1" as="geometry"/>
                </mxCell>
                <mxCell id="64" style="edgeStyle=none;html=1;fontSize=11;" edge="1" parent="1" source="29" target="63">
                    <mxGeometry relative="1" as="geometry"/>
                </mxCell>
                <mxCell id="80" style="edgeStyle=none;html=1;fontSize=11;" edge="1" parent="1" source="29" target="79">
                    <mxGeometry relative="1" as="geometry"/>
                </mxCell>
                <mxCell id="101" style="edgeStyle=none;html=1;fontSize=11;" edge="1" parent="1" source="29" target="100">
                    <mxGeometry relative="1" as="geometry"/>
                </mxCell>
                <mxCell id="29" value="Living Room&lt;br&gt;&lt;br&gt;Lot of small objects, chairs, big confy chair, small table, tea set, furniture, travel mementos, a library, books, cat stuffs, etc." style="whiteSpace=wrap;html=1;fontSize=11;fillColor=#76608a;fontColor=#ffffff;strokeColor=#432D57;" vertex="1" parent="1">
                    <mxGeometry x="600" y="665" width="220" height="70" as="geometry"/>
                </mxCell>
                <mxCell id="66" style="edgeStyle=none;html=1;entryX=0.5;entryY=0;entryDx=0;entryDy=0;fontSize=11;" edge="1" parent="1" source="30" target="65">
                    <mxGeometry relative="1" as="geometry"/>
                </mxCell>
                <mxCell id="111" style="edgeStyle=none;html=1;fontSize=11;" edge="1" parent="1" source="30" target="110">
                    <mxGeometry relative="1" as="geometry"/>
                </mxCell>
                <mxCell id="30" value="Toilets&lt;br&gt;&lt;br&gt;There is a small window where we can see the moon and it's lighting the whole small room." style="whiteSpace=wrap;html=1;fontSize=11;fillColor=#76608a;fontColor=#ffffff;strokeColor=#432D57;" vertex="1" parent="1">
                    <mxGeometry x="-80" y="1025" width="160" height="90" as="geometry"/>
                </mxCell>
                <mxCell id="31" value="Corridor (entry)" style="whiteSpace=wrap;html=1;fontSize=11;fillColor=#76608a;fontColor=#ffffff;strokeColor=#432D57;" vertex="1" parent="1">
                    <mxGeometry x="300" y="670" width="120" height="60" as="geometry"/>
                </mxCell>
                <mxCell id="88" style="edgeStyle=none;html=1;entryX=0;entryY=0.5;entryDx=0;entryDy=0;fontSize=11;" edge="1" parent="1" source="32" target="28">
                    <mxGeometry relative="1" as="geometry"/>
                </mxCell>
                <mxCell id="32" value="Corridor (bifurcation)" style="whiteSpace=wrap;html=1;fontSize=11;fillColor=#76608a;fontColor=#ffffff;strokeColor=#432D57;" vertex="1" parent="1">
                    <mxGeometry x="300" y="1040" width="120" height="60" as="geometry"/>
                </mxCell>
                <mxCell id="33" value="&lt;font style=&quot;font-size: 15px&quot;&gt;Explore&lt;/font&gt;" style="shape=flexArrow;endArrow=classic;html=1;fontSize=11;entryX=0.5;entryY=0;entryDx=0;entryDy=0;exitX=0.5;exitY=1;exitDx=0;exitDy=0;fillColor=#76608a;strokeColor=#432D57;" edge="1" parent="1" source="17" target="31">
                    <mxGeometry width="50" height="50" relative="1" as="geometry">
                        <mxPoint x="510" y="630" as="sourcePoint"/>
                        <mxPoint x="360" y="660" as="targetPoint"/>
                    </mxGeometry>
                </mxCell>
                <mxCell id="36" value="" style="shape=flexArrow;endArrow=classic;startArrow=classic;html=1;fontSize=11;entryX=0.5;entryY=1;entryDx=0;entryDy=0;exitX=0.5;exitY=0;exitDx=0;exitDy=0;fillColor=#76608a;strokeColor=#432D57;" edge="1" parent="1" source="32" target="31">
                    <mxGeometry width="100" height="100" relative="1" as="geometry">
                        <mxPoint x="140" y="860" as="sourcePoint"/>
                        <mxPoint x="240" y="760" as="targetPoint"/>
                    </mxGeometry>
                </mxCell>
                <mxCell id="50" value="Walk&lt;br&gt;(corridor is in 2 parts because one part can change)" style="edgeLabel;html=1;align=center;verticalAlign=middle;resizable=0;points=[];fontSize=11;" vertex="1" connectable="0" parent="36">
                    <mxGeometry x="-0.0938" y="-1" relative="1" as="geometry">
                        <mxPoint as="offset"/>
                    </mxGeometry>
                </mxCell>
                <mxCell id="37" value="Outside&lt;br&gt;&lt;br&gt;(borders of the forest, around the house, on the dirt path etc.)" style="whiteSpace=wrap;html=1;fontSize=11;fillColor=#76608a;fontColor=#ffffff;strokeColor=#432D57;" vertex="1" parent="1">
                    <mxGeometry x="-90" y="635" width="140" height="130" as="geometry"/>
                </mxCell>
                <mxCell id="38" value="" style="shape=flexArrow;endArrow=classic;startArrow=classic;html=1;fontSize=11;entryX=0;entryY=0.5;entryDx=0;entryDy=0;exitX=1;exitY=0.5;exitDx=0;exitDy=0;fillColor=#76608a;strokeColor=#432D57;" edge="1" parent="1" source="37" target="31">
                    <mxGeometry width="100" height="100" relative="1" as="geometry">
                        <mxPoint x="160" y="750" as="sourcePoint"/>
                        <mxPoint x="240" y="660" as="targetPoint"/>
                    </mxGeometry>
                </mxCell>
                <mxCell id="41" value="House entrance door (not locked)" style="edgeLabel;html=1;align=center;verticalAlign=middle;resizable=0;points=[];fontSize=11;" vertex="1" connectable="0" parent="38">
                    <mxGeometry x="-0.13" relative="1" as="geometry">
                        <mxPoint x="21" as="offset"/>
                    </mxGeometry>
                </mxCell>
                <mxCell id="39" value="" style="shape=flexArrow;endArrow=classic;startArrow=classic;html=1;fontSize=11;exitX=0;exitY=0.5;exitDx=0;exitDy=0;fillColor=#76608a;strokeColor=#432D57;" edge="1" parent="1" source="29">
                    <mxGeometry width="100" height="100" relative="1" as="geometry">
                        <mxPoint x="340" y="760" as="sourcePoint"/>
                        <mxPoint x="420" y="700" as="targetPoint"/>
                    </mxGeometry>
                </mxCell>
                <mxCell id="40" value="Door (not locked)" style="edgeLabel;html=1;align=center;verticalAlign=middle;resizable=0;points=[];fontSize=11;" vertex="1" connectable="0" parent="39">
                    <mxGeometry x="0.2574" y="-2" relative="1" as="geometry">
                        <mxPoint x="23" y="2" as="offset"/>
                    </mxGeometry>
                </mxCell>
                <mxCell id="42" value="Tool Sched&lt;br&gt;&lt;br&gt;Door is locked" style="whiteSpace=wrap;html=1;fontSize=11;" vertex="1" parent="1">
                    <mxGeometry x="-80" y="900" width="120" height="60" as="geometry"/>
                </mxCell>
                <mxCell id="43" value="" style="shape=flexArrow;endArrow=classic;startArrow=classic;html=1;fontSize=11;entryX=0.5;entryY=1;entryDx=0;entryDy=0;exitX=0.5;exitY=0;exitDx=0;exitDy=0;fillColor=#76608a;strokeColor=#432D57;" edge="1" parent="1" source="42" target="37">
                    <mxGeometry width="100" height="100" relative="1" as="geometry">
                        <mxPoint x="-120" y="880" as="sourcePoint"/>
                        <mxPoint x="-20" y="780" as="targetPoint"/>
                    </mxGeometry>
                </mxCell>
                <mxCell id="44" value="Walk" style="edgeLabel;html=1;align=center;verticalAlign=middle;resizable=0;points=[];fontSize=11;" vertex="1" connectable="0" parent="43">
                    <mxGeometry x="-0.1785" y="3" relative="1" as="geometry">
                        <mxPoint as="offset"/>
                    </mxGeometry>
                </mxCell>
                <mxCell id="45" value="Places with Weird Mushrooms" style="whiteSpace=wrap;html=1;fontSize=11;fillColor=#76608a;fontColor=#ffffff;strokeColor=#432D57;" vertex="1" parent="1">
                    <mxGeometry x="-80" y="480" width="120" height="60" as="geometry"/>
                </mxCell>
                <mxCell id="46" value="" style="shape=flexArrow;endArrow=classic;startArrow=classic;html=1;fontSize=11;entryX=0.5;entryY=1;entryDx=0;entryDy=0;exitX=0.5;exitY=0;exitDx=0;exitDy=0;fillColor=#76608a;strokeColor=#432D57;" edge="1" parent="1" source="37" target="45">
                    <mxGeometry width="100" height="100" relative="1" as="geometry">
                        <mxPoint x="-10" y="620" as="sourcePoint"/>
                        <mxPoint x="90" y="520" as="targetPoint"/>
                    </mxGeometry>
                </mxCell>
                <mxCell id="47" value="Search" style="edgeLabel;html=1;align=center;verticalAlign=middle;resizable=0;points=[];fontSize=11;" vertex="1" connectable="0" parent="46">
                    <mxGeometry x="0.1624" y="-1" relative="1" as="geometry">
                        <mxPoint as="offset"/>
                    </mxGeometry>
                </mxCell>
                <mxCell id="48" value="" style="shape=flexArrow;endArrow=classic;startArrow=classic;html=1;fontSize=11;entryX=0;entryY=0.5;entryDx=0;entryDy=0;fillColor=#76608a;strokeColor=#432D57;" edge="1" parent="1" source="30" target="32">
                    <mxGeometry width="100" height="100" relative="1" as="geometry">
                        <mxPoint x="340" y="980" as="sourcePoint"/>
                        <mxPoint x="440" y="880" as="targetPoint"/>
                    </mxGeometry>
                </mxCell>
                <mxCell id="49" value="Door (half open - not locked)" style="edgeLabel;html=1;align=center;verticalAlign=middle;resizable=0;points=[];fontSize=11;" vertex="1" connectable="0" parent="48">
                    <mxGeometry x="-0.3077" relative="1" as="geometry">
                        <mxPoint x="28" as="offset"/>
                    </mxGeometry>
                </mxCell>
                <mxCell id="52" value="When the player see the House for the first time, a big title text displays &quot;The House&quot; on the screen for a few seconds&lt;br&gt;then disappear and says it's a HomeTeam Gamedev game." style="rounded=1;whiteSpace=wrap;html=1;fontSize=11;fillColor=#647687;fontColor=#ffffff;strokeColor=#314354;" vertex="1" parent="1">
                    <mxGeometry x="600" y="180" width="170" height="100" as="geometry"/>
                </mxCell>
                <mxCell id="56" value="" style="endArrow=none;dashed=1;html=1;fontSize=11;entryX=-0.01;entryY=0.435;entryDx=0;entryDy=0;entryPerimeter=0;exitX=1;exitY=0.25;exitDx=0;exitDy=0;" edge="1" parent="1" source="4" target="52">
                    <mxGeometry width="50" height="50" relative="1" as="geometry">
                        <mxPoint x="500" y="380" as="sourcePoint"/>
                        <mxPoint x="550" y="330" as="targetPoint"/>
                    </mxGeometry>
                </mxCell>
                <mxCell id="75" style="edgeStyle=none;html=1;entryX=1;entryY=0.5;entryDx=0;entryDy=0;fontSize=11;" edge="1" parent="1" source="57" target="74">
                    <mxGeometry relative="1" as="geometry"/>
                </mxCell>
                <mxCell id="57" value="&lt;span style=&quot;font-size: 12px&quot;&gt;The front (and only) door of the house is locked. The front (and only) door of the tool shed is locked.&lt;/span&gt;&lt;br style=&quot;font-size: 12px&quot;&gt;&lt;br style=&quot;font-size: 12px&quot;&gt;" style="whiteSpace=wrap;html=1;fontSize=11;" vertex="1" parent="1">
                    <mxGeometry x="240" y="320" width="240" height="70" as="geometry"/>
                </mxCell>
                <mxCell id="58" value="" style="shape=flexArrow;endArrow=classic;html=1;fontSize=11;exitX=0.5;exitY=1;exitDx=0;exitDy=0;entryX=0.5;entryY=0;entryDx=0;entryDy=0;" edge="1" parent="1" source="4" target="57">
                    <mxGeometry width="50" height="50" relative="1" as="geometry">
                        <mxPoint x="359.99" y="430" as="sourcePoint"/>
                        <mxPoint x="409.99" y="380" as="targetPoint"/>
                    </mxGeometry>
                </mxCell>
                <mxCell id="103" style="edgeStyle=none;html=1;fontSize=11;" edge="1" parent="1" source="59" target="21">
                    <mxGeometry relative="1" as="geometry"/>
                </mxCell>
                <mxCell id="104" style="edgeStyle=none;html=1;fontSize=11;" edge="1" parent="1" source="59" target="23">
                    <mxGeometry relative="1" as="geometry"/>
                </mxCell>
                <mxCell id="59" value="BedRoom" style="whiteSpace=wrap;html=1;fontSize=11;fillColor=#d80073;fontColor=#ffffff;strokeColor=#A50040;" vertex="1" parent="1">
                    <mxGeometry x="70" y="1337.5" width="170" height="90" as="geometry"/>
                </mxCell>
                <mxCell id="78" style="edgeStyle=none;html=1;fontSize=11;" edge="1" parent="1" source="63" target="76">
                    <mxGeometry relative="1" as="geometry"/>
                </mxCell>
                <mxCell id="63" value="There is a big mouth in a corner of the ceiling" style="whiteSpace=wrap;html=1;fontSize=11;" vertex="1" parent="1">
                    <mxGeometry x="830" y="550" width="130" height="70" as="geometry"/>
                </mxCell>
                <mxCell id="65" value="A &lt;b&gt;LIGHTER&lt;/b&gt; is on top of the water reservoir of the toilet sit." style="whiteSpace=wrap;html=1;fontSize=11;fillColor=#e51400;fontColor=#ffffff;strokeColor=#B20000;" vertex="1" parent="1">
                    <mxGeometry x="-65" y="1150" width="130" height="60" as="geometry"/>
                </mxCell>
                <mxCell id="69" value="Kitchen" style="whiteSpace=wrap;html=1;fontSize=11;fillColor=#d80073;fontColor=#ffffff;strokeColor=#A50040;" vertex="1" parent="1">
                    <mxGeometry x="1150" y="1100" width="120" height="60" as="geometry"/>
                </mxCell>
                <mxCell id="72" value="Trapdoor on the attic&lt;br&gt;Locked." style="whiteSpace=wrap;html=1;fontSize=11;fillColor=#d80073;fontColor=#ffffff;strokeColor=#A50040;" vertex="1" parent="1">
                    <mxGeometry x="110" y="790" width="120" height="60" as="geometry"/>
                </mxCell>
                <mxCell id="85" style="edgeStyle=none;html=1;fontSize=11;fillColor=#e51400;strokeColor=#B20000;" edge="1" parent="1" source="74" target="17">
                    <mxGeometry relative="1" as="geometry"/>
                </mxCell>
                <mxCell id="74" value="&lt;span style=&quot;font-size: 12px&quot;&gt;Next to the house door, there are various objects (pots? rocks?) and a key (&lt;b&gt;the house key&lt;/b&gt;) under one of these objects.&lt;/span&gt;" style="whiteSpace=wrap;html=1;fontSize=11;fillColor=#e51400;fontColor=#ffffff;strokeColor=#B20000;" vertex="1" parent="1">
                    <mxGeometry y="320" width="160" height="110" as="geometry"/>
                </mxCell>
                <mxCell id="76" value="Having a &lt;b&gt;light source&lt;/b&gt; close or pointed at the eye will close it and the mouth will open (with a disturbing noise). &lt;b&gt;An OLD WOMAN SHOE&lt;/b&gt;&amp;nbsp;will fall from it." style="whiteSpace=wrap;html=1;fontSize=11;fillColor=#e51400;fontColor=#ffffff;strokeColor=#B20000;" vertex="1" parent="1">
                    <mxGeometry x="730" y="430" width="160" height="90" as="geometry"/>
                </mxCell>
                <mxCell id="82" style="edgeStyle=none;html=1;fontSize=11;fillColor=#e51400;strokeColor=#B20000;" edge="1" parent="1" source="79" target="69">
                    <mxGeometry relative="1" as="geometry"/>
                </mxCell>
                <mxCell id="79" value="The &lt;b&gt;KITCHEN KEY&lt;/b&gt; is put somewhere on a surface of a table or furniture in this room (maybe randomize?)" style="whiteSpace=wrap;html=1;fontSize=11;fillColor=#e51400;fontColor=#ffffff;strokeColor=#B20000;" vertex="1" parent="1">
                    <mxGeometry x="920" y="750" width="160" height="100" as="geometry"/>
                </mxCell>
                <mxCell id="83" value="" style="shape=flexArrow;endArrow=classic;html=1;fontSize=11;fillColor=#e51400;strokeColor=#B20000;startArrow=block;" edge="1" parent="1" source="31" target="69">
                    <mxGeometry width="50" height="50" relative="1" as="geometry">
                        <mxPoint x="600" y="810" as="sourcePoint"/>
                        <mxPoint x="700" y="860" as="targetPoint"/>
                    </mxGeometry>
                </mxCell>
                <mxCell id="84" value="Locked Door&lt;br&gt;Requires the Kitchen Key" style="edgeLabel;html=1;align=center;verticalAlign=middle;resizable=0;points=[];fontSize=11;" vertex="1" connectable="0" parent="83">
                    <mxGeometry x="-0.3665" y="1" relative="1" as="geometry">
                        <mxPoint x="-102" y="-46" as="offset"/>
                    </mxGeometry>
                </mxCell>
                <mxCell id="86" value="Trap door on the basement.&lt;br&gt;Locked" style="whiteSpace=wrap;html=1;fontSize=11;fillColor=#d80073;fontColor=#ffffff;strokeColor=#A50040;" vertex="1" parent="1">
                    <mxGeometry x="750" y="800" width="130" height="40" as="geometry"/>
                </mxCell>
                <mxCell id="91" style="edgeStyle=none;html=1;entryX=0.5;entryY=0;entryDx=0;entryDy=0;fontSize=11;" edge="1" parent="1" source="90" target="2">
                    <mxGeometry relative="1" as="geometry"/>
                </mxCell>
                <mxCell id="90" value="GAME START" style="whiteSpace=wrap;html=1;fontSize=11;" vertex="1" parent="1">
                    <mxGeometry x="300.01" y="-230" width="120" height="60" as="geometry"/>
                </mxCell>
                <mxCell id="92" value="" style="shape=flexArrow;endArrow=classic;html=1;fontSize=11;fillColor=#e51400;strokeColor=#B20000;startArrow=block;" edge="1" parent="1" source="32" target="59">
                    <mxGeometry width="50" height="50" relative="1" as="geometry">
                        <mxPoint x="389.99999999999983" y="1080" as="sourcePoint"/>
                        <mxPoint x="739.6000000000001" y="1270" as="targetPoint"/>
                    </mxGeometry>
                </mxCell>
                <mxCell id="93" value="Locked Door&lt;br&gt;Requires playing the &lt;b&gt;MUSIC BOX&lt;/b&gt; to the door's ear" style="edgeLabel;html=1;align=center;verticalAlign=middle;resizable=0;points=[];fontSize=11;" vertex="1" connectable="0" parent="92">
                    <mxGeometry x="-0.3665" y="1" relative="1" as="geometry">
                        <mxPoint x="20" y="9" as="offset"/>
                    </mxGeometry>
                </mxCell>
                <mxCell id="94" value="" style="edgeStyle=none;html=1;fontSize=11;fillColor=#e51400;strokeColor=#B20000;" edge="1" parent="1" source="28" target="59">
                    <mxGeometry relative="1" as="geometry">
                        <mxPoint x="915.1999999999996" y="1015" as="sourcePoint"/>
                        <mxPoint x="819.9999999999998" y="1185" as="targetPoint"/>
                    </mxGeometry>
                </mxCell>
                <mxCell id="95" value="" style="shape=flexArrow;endArrow=classic;html=1;fontSize=11;fillColor=#e51400;strokeColor=#B20000;startArrow=block;" edge="1" parent="1" source="31" target="72">
                    <mxGeometry width="50" height="50" relative="1" as="geometry">
                        <mxPoint x="380" y="800" as="sourcePoint"/>
                        <mxPoint x="430" y="750" as="targetPoint"/>
                    </mxGeometry>
                </mxCell>
                <mxCell id="96" value="LOCKED" style="edgeLabel;html=1;align=center;verticalAlign=middle;resizable=0;points=[];fontSize=11;" vertex="1" connectable="0" parent="95">
                    <mxGeometry x="-0.1691" relative="1" as="geometry">
                        <mxPoint as="offset"/>
                    </mxGeometry>
                </mxCell>
                <mxCell id="97" value="" style="shape=flexArrow;endArrow=classic;html=1;fontSize=11;fillColor=#e51400;strokeColor=#B20000;" edge="1" parent="1" source="29" target="86">
                    <mxGeometry width="50" height="50" relative="1" as="geometry">
                        <mxPoint x="750" y="735" as="sourcePoint"/>
                        <mxPoint x="655" y="795" as="targetPoint"/>
                    </mxGeometry>
                </mxCell>
                <mxCell id="98" value="LOCKED" style="edgeLabel;html=1;align=center;verticalAlign=middle;resizable=0;points=[];fontSize=11;" vertex="1" connectable="0" parent="97">
                    <mxGeometry x="-0.1691" relative="1" as="geometry">
                        <mxPoint as="offset"/>
                    </mxGeometry>
                </mxCell>
                <mxCell id="105" style="edgeStyle=none;html=1;fontSize=11;" edge="1" parent="1" source="100" target="27">
                    <mxGeometry relative="1" as="geometry"/>
                </mxCell>
                <mxCell id="100" value="The &lt;b&gt;MUSIC BOX&lt;/b&gt; is well hidden inside some furniture, under some other objects." style="whiteSpace=wrap;html=1;fontSize=11;fillColor=#e51400;fontColor=#ffffff;strokeColor=#B20000;" vertex="1" parent="1">
                    <mxGeometry x="920" y="635" width="160" height="100" as="geometry"/>
                </mxCell>
                <mxCell id="106" value="BathRoom&lt;br&gt;&lt;br&gt;Big Bath Thub, Shower,&lt;br&gt;Sink, and other bath stuffs&lt;br&gt;(no toilets)" style="whiteSpace=wrap;html=1;fontSize=11;fillColor=#d80073;fontColor=#ffffff;strokeColor=#A50040;" vertex="1" parent="1">
                    <mxGeometry x="685" y="1390" width="165" height="110" as="geometry"/>
                </mxCell>
                <mxCell id="107" value="" style="shape=flexArrow;endArrow=classic;html=1;fontSize=11;fillColor=#e51400;strokeColor=#B20000;" edge="1" parent="1" source="32" target="106">
                    <mxGeometry width="50" height="50" relative="1" as="geometry">
                        <mxPoint x="420.4878048780488" y="1110" as="sourcePoint"/>
                        <mxPoint x="639.2682926829266" y="1240" as="targetPoint"/>
                    </mxGeometry>
                </mxCell>
                <mxCell id="108" value="Locked Door&lt;br&gt;Requires ???" style="edgeLabel;html=1;align=center;verticalAlign=middle;resizable=0;points=[];fontSize=11;" vertex="1" connectable="0" parent="107">
                    <mxGeometry x="-0.3665" y="1" relative="1" as="geometry">
                        <mxPoint x="1" y="23" as="offset"/>
                    </mxGeometry>
                </mxCell>
                <mxCell id="114" style="edgeStyle=none;html=1;fontSize=11;" edge="1" parent="1" source="110" target="112">
                    <mxGeometry relative="1" as="geometry"/>
                </mxCell>
                <mxCell id="110" value="There are books in there.&lt;br&gt;" style="whiteSpace=wrap;html=1;fontSize=11;" vertex="1" parent="1">
                    <mxGeometry x="-260" y="1015" width="120" height="60" as="geometry"/>
                </mxCell>
                <mxCell id="116" style="edgeStyle=none;html=1;fontSize=11;" edge="1" parent="1" source="112" target="115">
                    <mxGeometry relative="1" as="geometry"/>
                </mxCell>
                <mxCell id="112" value="One of the books have a note sticked on it, it's 6 weird symbols." style="whiteSpace=wrap;html=1;fontSize=11;" vertex="1" parent="1">
                    <mxGeometry x="-320" y="1110" width="150" height="90" as="geometry"/>
                </mxCell>
                <mxCell id="117" style="edgeStyle=none;html=1;fontSize=11;fillColor=#e51400;strokeColor=#B20000;" edge="1" parent="1" source="115" target="21">
                    <mxGeometry relative="1" as="geometry"/>
                </mxCell>
                <mxCell id="115" value="The symbols once decyphered are the&lt;b&gt; code to open the big chest.&lt;/b&gt;" style="whiteSpace=wrap;html=1;fontSize=11;fillColor=#e51400;fontColor=#ffffff;strokeColor=#B20000;" vertex="1" parent="1">
                    <mxGeometry x="-325" y="1270" width="160" height="80" as="geometry"/>
                </mxCell>
            </root>
        </mxGraphModel>
    </diagram>
</mxfile>